<svg xmlns="http://www.w3.org/2000/svg" viewBox="0 0 503.31 390.47"><title>Asset 1</title><g id="Layer_2" data-name="Layer 2"><g id="Layer_1-2" data-name="Layer 1"><path d="M304.12,347.42q0-6,0-12c.18-.23.43-.14.64-.14h4.82l.43-.39v-5.4a30.28,30.28,0,0,1,5.06,0v5.34l.35.39c.06,0,.09.08.13.08h5.31c.06-.06.1-.09.12-.13a.31.31,0,0,0,0-.13c0-3.8,0-7.6,0-11.42l.56-.27v-.29c.08,0,.15-.13.22-.13h11.82a1.18,1.18,0,0,1,.26.06.43.43,0,0,1,.08.11.48.48,0,0,1,0,.14V329l.42.42h5.08l.43-.46V317.14c.09-.06.12-.1.16-.1h5.59c.06.06.11.09.12.13a.32.32,0,0,1,0,.13q0,2.74,0,5.49s.05.07.11.13h5.4l.32-.32s.07-.07.07-.11a2.37,2.37,0,0,0,0-.28V310.69a33.87,33.87,0,0,1,5.61,0v6.24c.08.08.11.13.15.15a.37.37,0,0,0,.14,0h6.61c.24-.17.14-.42.14-.64,0-1.69,0-3.38,0-5.06v-.64c.09-.07.12-.11.16-.13a.45.45,0,0,1,.14,0H376a.68.68,0,0,0,.11-.11.27.27,0,0,0,0-.13q0-2.74,0-5.49s0-.07.1-.16H387.8c.08-.08.13-.11.15-.15a.32.32,0,0,0,0-.13q0-2.53,0-5.06a.44.44,0,0,1,0-.14s.06-.07.13-.15h17.74c.24-.25.09-.49.16-.75l.49-.17a3.43,3.43,0,0,0,.05-1.09c0-.37,0-.75,0-1.13v-3.2a.68.68,0,0,1,.12-.12.29.29,0,0,1,.13,0h5.49s.07-.05.16-.11V280.33c.08-.08.11-.13.15-.15a.37.37,0,0,1,.14,0h5.49c.23.17.14.42.14.64,0,1.78,0,3.56,0,5.38l.38.41h4.39l1.13-1.14V274.42c.08-.08.11-.14.15-.14a1.9,1.9,0,0,1,.28,0h5.49v5.48a1.84,1.84,0,0,0,0,.28s.06.06.12.12h6.52l.37-.4v-5.07l-.4-.42h-6.61q0-6,0-12l-.42-.42h-5.31s-.07,0-.16.11v6.25a41.11,41.11,0,0,1-5.93,0V262c-.08-.07-.12-.13-.15-.13h-5.33l-.42.42v6h-5.78c-.06-.05-.11-.08-.13-.12a.37.37,0,0,1,0-.14v-6A28.17,28.17,0,0,0,401,262a.42.42,0,0,0-.08.11.49.49,0,0,0,0,.14v6a.68.68,0,0,1-.12.12.29.29,0,0,1-.13,0H394s-.07,0-.14.1v5.7s.07.08.11.1a.36.36,0,0,0,.14,0h6.61c.24.17.14.42.14.64,0,1.73,0,3.46,0,5.14-.09.07-.12.13-.16.13H394a.67.67,0,0,1-.11-.11.27.27,0,0,1,0-.13c0-1.73,0-3.47,0-5.23l-.39-.41H382.16c0,.05-.1.08-.11.12a2,2,0,0,0,0,.28v11.81a31.91,31.91,0,0,1-5.85.07,3.47,3.47,0,0,1-.05-1.09c0-.33,0-.66,0-1v-4.19a.68.68,0,0,0-.12-.12.29.29,0,0,0-.13,0H364.49s-.07.05-.16.11v6.2c-.08.08-.11.13-.15.15a.37.37,0,0,1-.14,0h-6.61c-.23.17-.14.42-.14.64,0,1.73,0,3.45,0,5.14-.09.07-.13.13-.16.13h-5.32a.68.68,0,0,1-.11-.12.27.27,0,0,1,0-.13q0-2.74,0-5.49s0-.07-.09-.14h-5.73c-.2.34-.06.72-.08,1.08s0,.84,0,1.27v1.13c0,.42,0,.84,0,1.27a2.82,2.82,0,0,1-.08,1.14H340c-.08.08-.13.12-.13.15a2,2,0,0,0,0,.28v5.9a26.77,26.77,0,0,1-5.31.07l-.06-.69-.53-.19v-5.38c-.08-.08-.11-.14-.15-.14a1.89,1.89,0,0,0-.28,0h-6.61q0-2.88,0-5.77c.17-.23.43-.14.64-.14h6.26c.07-.09.12-.13.13-.16,0-2.06,0-4.12,0-6.17a.68.68,0,0,0-.12-.11.27.27,0,0,0-.13,0h-6.61s-.07,0-.14-.09v-5.71a.41.41,0,0,1,.1-.09.33.33,0,0,1,.14,0H345.6s.07-.05.15-.13V262c.08-.08.11-.13.15-.14a2,2,0,0,1,.28,0h5.34a.67.67,0,0,0,.1-.1.25.25,0,0,0,0-.12c0-1.87,0-3.73,0-5.56.1-.07.13-.12.17-.12h5.32a.68.68,0,0,1,.12.12.29.29,0,0,1,0,.13q0,2.74,0,5.49s0,.07.1.14h6.82s.08-.07.1-.11a.36.36,0,0,0,0-.14q0-2.74,0-5.49c.17-.24.42-.14.64-.14h5.14c.07-.09.12-.12.13-.16a2.11,2.11,0,0,0,0-.28v-5.09l.51-.18.08-.37c.08,0,.16-.11.23-.11h10.59l.41-.49V238.1c.08-.06.12-.12.16-.12h5.6a.68.68,0,0,1,.11.12.28.28,0,0,1,0,.13q0,2.74,0,5.49s0,.07.09.14h5.39l.42-.38v-5.36a.62.62,0,0,1,.11-.1.26.26,0,0,1,.13,0h6.36l.43-.41v-5.91c.08-.09.11-.15.15-.15a1.87,1.87,0,0,1,.28,0h11.11v5.74a2.43,2.43,0,0,0,0,.28s0,.07.09.13l.35.32h5.22a.26.26,0,0,0,.13,0,.36.36,0,0,0,.08-.08v-6.36h-5.88v-5.76c.17-.24.42-.14.64-.14h11c.07-.08.13-.11.13-.15a2,2,0,0,0,0-.28v-5.62l-.42-.42h-5.31s-.07,0-.14-.09v-5.7a40.23,40.23,0,0,1,5.86,0V219a42,42,0,0,0,5.92,0v-5.67c.08-.08.11-.13.15-.14a2,2,0,0,1,.28,0h6.61q0,2.87,0,5.74s0,.07.07.11a41.52,41.52,0,0,0,5.81,0V213.7l-.37-.48h-5.51q0-2.73,0-5.47s.05-.07.12-.15h4.75l.48-.42v-.33l.48-.17a.45.45,0,0,0,.07-.11.53.53,0,0,0,0-.14v-5.17a.67.67,0,0,1,.12-.11.27.27,0,0,1,.13,0h5.19s.08,0,.11-.06.08-.07.08-.11q0-2.8,0-5.6a.67.67,0,0,0-.11-.11.25.25,0,0,0-.13,0h-5.26c-.07-.09-.13-.12-.13-.16q0-3.16,0-6.31h5.46s.07-.05.11-.08a37.56,37.56,0,0,0-.06-5.8H443.2c0,.07-.1.1-.1.14q0,2.87,0,5.74h-5.76c-.24-.17-.14-.42-.14-.64,0-1.59,0-3.18,0-4.82l-.32-.35c-.06,0-.1-.08-.13-.09H430.3a.68.68,0,0,0-.11.12.28.28,0,0,0,0,.13q0,2.74,0,5.48s0,.07-.1.16H418.51a.91.91,0,0,0-.14.15.29.29,0,0,0,0,.13q0,3,0,6s0,.07-.1.16H412.6c-.08.08-.12.11-.14.15a.31.31,0,0,0,0,.13q0,2.74,0,5.48s0,.07-.1.14h-5.7s-.08-.06-.1-.1a.34.34,0,0,1,0-.14q0-2.67,0-5.34a.45.45,0,0,0,0-.14s-.05-.07-.11-.13H401s-.09.07-.11.11a.38.38,0,0,0,0,.14q0,2.74,0,5.48c-.17.24-.42.14-.64.14H394c-.07.08-.13.11-.13.15a2,2,0,0,0,0,.28v6H388.1c-.23.17-.14.42-.14.64q0,4.92,0,9.84V219c-.09.07-.13.13-.16.13h-5.61a.67.67,0,0,1-.11-.11.27.27,0,0,1,0-.13c0-1.73,0-3.47,0-5.23l-.39-.41h-5.12l-.32.32s-.07.07-.07.11a2.38,2.38,0,0,0,0,.28v5a.68.68,0,0,1-.12.12.29.29,0,0,1-.13,0h-5.26l-.4.51v5.83c-.08.07-.12.12-.15.13a2.12,2.12,0,0,1-.28,0H357.72l-.42.42c0,1.76,0,3.54,0,5.32,0,0-.05.07-.12.15H340c-.08.08-.13.11-.14.15a.38.38,0,0,0,0,.14q0,3,0,6c.17.23.42.14.64.14h5.14c.07.09.13.12.13.16,0,1.87,0,3.75,0,5.61a.68.68,0,0,1-.11.11.27.27,0,0,1-.13,0H334.06a1,1,0,0,1-.11-.18.54.54,0,0,1,0-.14v-.28q0-2.53,0-5.06a.67.67,0,0,0,0-.13.46.46,0,0,0-.1-.1.31.31,0,0,0-.13,0h-6.61s-.07.05-.16.12v5.63c-.08.08-.11.14-.15.15a1.89,1.89,0,0,1-.28,0H316l-.19.54-.64,0c0,.08-.12.15-.12.23,0,1.5,0,3,0,4.5,0,.18,0,.36,0,.57h-5a.41.41,0,0,1-.09-.1.33.33,0,0,1,0-.13q0-5.7,0-11.39s.05-.07.12-.15H315c.08-.08.13-.11.14-.15a2,2,0,0,0,0-.28v-5.4l.79-.15.08-.39c.07,0,.14-.11.22-.11h4.22c.18,0,.37.07.58-.12V219.77l.48-.11.15-.44s.07-.09.1-.09H333.8a.67.67,0,0,0,.1-.11.26.26,0,0,0,0-.13q0-5.56,0-11.11s0-.08.06-.11.07-.07.11-.07h5.59a.68.68,0,0,1,.12.12.29.29,0,0,1,0,.13q0,2.6,0,5.2s0,.07.1.14h5.7s.08-.07.1-.11a.36.36,0,0,0,0-.14q0-2.6,0-5.2c.17-.24.42-.14.64-.14h4.82l.36-.33c0-.06.08-.09.08-.13a2.6,2.6,0,0,0,0-.28q0-2.74,0-5.48a.66.66,0,0,1,0-.13.45.45,0,0,1,.1-.1.31.31,0,0,1,.13,0h5.2s.07-.05.15-.12v-5.63c.08-.09.11-.15.15-.15a1.87,1.87,0,0,1,.28,0h6.61v5.18a2.39,2.39,0,0,0,0,.28s0,.07.09.13l.35.32H370a.26.26,0,0,0,.13,0,.36.36,0,0,0,.08-.08v-5.8h-5.88v-5.77c.43-.07.68-.4,1-.7h4.76s.07-.05.15-.12V183c.08-.08.11-.13.15-.14a.38.38,0,0,1,.14,0h11.24a.43.43,0,0,0,.14,0s.07-.06.15-.13v-5.64c.08-.08.11-.13.15-.14a2,2,0,0,1,.28,0H388q0,2.87,0,5.74s0,.07.07.11a41.52,41.52,0,0,0,5.81,0v-5.32l-.37-.48H388q0-3.16,0-6.33c.17-.23.43-.14.64-.14h12.17c.07-.09.13-.13.13-.16,0-1.78,0-3.56,0-5.32l-.42-.42H394s-.07-.06-.13-.11v-6c.06-.05.09-.11.12-.11h6.74a.67.67,0,0,1,.1.11.25.25,0,0,1,0,.12q0,2.88,0,5.77s0,.08.06.11.07.07.11.07h11.24a41.66,41.66,0,0,0,0-6.18h-5.67c-.08-.08-.13-.11-.15-.15a.36.36,0,0,1,0-.14q0-2.74,0-5.49c.17-.24.42-.14.64-.14h11c.07-.09.12-.12.13-.16a2.12,2.12,0,0,0,0-.28v-11.8a.68.68,0,0,1,.11-.11.26.26,0,0,1,.13,0h5.23l.41-.39V122.19l-.31-.31s-.07-.07-.11-.08a2.28,2.28,0,0,0-.28,0h-4.76l-.42.42q0,2.66,0,5.34s-.06.07-.11.13h-5.68c-.05-.06-.1-.09-.11-.13a2.07,2.07,0,0,1,0-.28v-5.33a.67.67,0,0,0-.11-.11.26.26,0,0,0-.13,0H407l-.43.4v5.35c-.08.09-.11.14-.15.15a1.87,1.87,0,0,1-.28,0h-5.2v-5.18a2.32,2.32,0,0,0,0-.28s0-.07-.08-.11l-.3-.3a40.3,40.3,0,0,0-6.62.08v5.69c.07,0,.11.09.14.09h6.86V134c-.17.23-.42.14-.64.14H394c-.07.09-.12.12-.13.16a2.1,2.1,0,0,0,0,.28v5.33a.67.67,0,0,1-.11.1.25.25,0,0,1-.13,0h-5.48s-.08,0-.11.06a.43.43,0,0,0-.08.11.5.5,0,0,0,0,.14v6a.68.68,0,0,1-.12.12.28.28,0,0,1-.13,0H376.46a1.38,1.38,0,0,1-.3-.08V140.2a39.55,39.55,0,0,0-5.92,0v6.28c-.39.22-.77.08-1.13.1s-.84,0-1.26,0h-1.12c-.42,0-.84,0-1.26,0a2.78,2.78,0,0,0-1.11.07V152l.3.33c.06,0,.1.08.13.09H370l.13,0a38.17,38.17,0,0,1,0,5.82,1.11,1.11,0,0,1-.25.06h-5.44c-.07-.07-.11-.09-.13-.13a.34.34,0,0,1,0-.14q0-2.67,0-5.34a.44.44,0,0,0,0-.14s-.06-.07-.11-.13h-6.8c-.06.05-.12.08-.12.12a1.85,1.85,0,0,0,0,.28q0,2.67,0,5.34c-.17.23-.42.14-.64.14H351.8c-.07.09-.12.12-.13.16a2.16,2.16,0,0,0,0,.28v11.52a32.41,32.41,0,0,1-5.83.07.43.43,0,0,1-.08-.11.49.49,0,0,1,0-.14V165l-.42-.42H340s-.07.06-.15.13v5.64c-.08.08-.11.13-.15.13a2,2,0,0,1-.28,0h-5.06l-.42.42v6H321.45l-.45.44v5.49h-5.49l-.42.43V195.2H304.28c-.08.08-.13.11-.14.15a.31.31,0,0,0,0,.13q0,2.74,0,5.48s-.05.07-.12.15h-5.64c-.08.08-.13.11-.14.15a.39.39,0,0,0,0,.14c0,1.73,0,3.47,0,5.24l-.54.19,0,.64c-.08,0-.15.12-.23.12h-5.48a1.13,1.13,0,0,0-.72.09v5.37c-.08.08-.11.13-.15.15a.32.32,0,0,1-.13,0H279.53s-.07-.05-.15-.12v-5.35c-.08-.09-.11-.14-.15-.15a1.87,1.87,0,0,0-.28,0h-5.1a1.41,1.41,0,0,1-.1-.36q0-5.84,0-11.67a1.3,1.3,0,0,1,.05-.26.41.41,0,0,1,.11-.08.45.45,0,0,1,.14,0h5.19a.67.67,0,0,0,.11-.11.27.27,0,0,0,0-.13q0-3,0-6s0-.07.07-.11a.45.45,0,0,1,.11-.07.54.54,0,0,1,.14,0H285l.13,0a.46.46,0,0,0,.1-.1.31.31,0,0,0,0-.13q0-2.74,0-5.48s.05-.07.12-.16H291c.08-.08.13-.11.14-.15a.38.38,0,0,0,0-.14q0-2.74,0-5.48c.17-.23.42-.14.64-.14h5.77l.1-.47.51-.18v-5.7c.39-.24.77-.09,1.13-.12s.84,0,1.27,0h1.12c.42,0,.84,0,1.27,0a3,3,0,0,0,1.14-.08v-5.66c.09-.09.11-.15.15-.15a1.86,1.86,0,0,1,.28,0H310q0,2.87,0,5.74s0,.07.08.11a27.81,27.81,0,0,0,5-.06v-5.68c-.06-.05-.1-.1-.14-.1H310v-6c.17-.23.42-.14.64-.14h10.2c.07-.09.13-.12.13-.16,0-1.87,0-3.75,0-5.61a.67.67,0,0,0-.11-.11.26.26,0,0,0-.13,0h-4.64s-.08,0-.14-.08l-.09-.42-.78-.12v-5.17s.07-.09.11-.11a.39.39,0,0,1,.14,0h5.48c.23.17.14.42.14.64,0,1.59,0,3.19,0,4.82l.38.41h5.43a.4.4,0,0,0,.09-.1.32.32,0,0,0,0-.13q0-2.74,0-5.48s.05-.07.12-.15h6.75c.09-.08.14-.11.15-.15a.38.38,0,0,0,0-.14q0-3,0-6c-.17-.23-.43-.14-.64-.14H327c-.07-.09-.13-.13-.13-.16,0-1.87,0-3.75,0-5.61a.67.67,0,0,1,.11-.11.27.27,0,0,1,.13,0h6.61s.07,0,.11-.07a.45.45,0,0,0,.07-.11.54.54,0,0,0,0-.14v-.28q0-2.53,0-5.06a1.1,1.1,0,0,1,0-.17l.43-.11.14-.41s.07-.11.1-.11h5.2q0,3.15,0,6.3s0,.07.07.11a41.37,41.37,0,0,0,5.81,0v-5.88l-.38-.47h-5.51v-5.76c.17-.23.42-.14.64-.14h5.13c.07.09.12.12.13.16a2.15,2.15,0,0,1,0,.28v5.34a33.46,33.46,0,0,0,5.83.07.44.44,0,0,0,.07-.11.52.52,0,0,0,0-.14V109.82a32.49,32.49,0,0,1,5.61,0v5.39c.24.28.49.09.7.18s.05.51.21.74a.76.76,0,0,0,.24.09h5.76a.67.67,0,0,0,.1-.1.25.25,0,0,0,0-.12c0-4,0-8,0-12-.09-.07-.12-.11-.16-.13a.46.46,0,0,0-.14,0h-6.59a.67.67,0,0,1-.11-.11.26.26,0,0,1,0-.13c0-2.05,0-4.11,0-6.11.1-.07.14-.11.18-.11h6.71a.68.68,0,0,1,.12.12.3.3,0,0,1,0,.13c0,1.92,0,3.84,0,5.81l.49.37h5.31c.05-.06.1-.09.11-.13a2.13,2.13,0,0,0,0-.28V97.46a.67.67,0,0,1,.11-.11.26.26,0,0,1,.13,0H376s.08,0,.11-.06.07-.07.07-.11c0-1.87,0-3.74,0-5.59a.68.68,0,0,0-.12-.12.29.29,0,0,0-.13,0h-5.48s-.07,0-.16-.11V79.19c-.08-.08-.11-.12-.15-.14a.33.33,0,0,0-.13,0h-5.23l-.42.49v5.86c-.08.06-.12.11-.16.11h-5.88l-.51-.51-.38-.1a.79.79,0,0,1-.09-.24q0-2.74,0-5.48a29.27,29.27,0,0,0-5.55-.07.43.43,0,0,0-.08.11.5.5,0,0,0,0,.14v6a.68.68,0,0,1-.12.12.28.28,0,0,1-.13,0h-5.48s-.07,0-.16.1v5.68c-.39.23-.77.09-1.13.11s-.84,0-1.26,0h-1.12c-.42,0-.84,0-1.27,0a2.9,2.9,0,0,0-1.14.08v5.66c-.09.1-.11.14-.15.16a.37.37,0,0,1-.14,0h-5.62V91.83a1.85,1.85,0,0,0,0-.28s-.06-.06-.12-.12H327.3l-.37.4V96.9l.4.42h6.61q0,3.16,0,6.33c-.17.23-.42.14-.64.14H321.13c-.07.09-.11.12-.13.16a.45.45,0,0,0,0,.14V116a.67.67,0,0,1-.11.11.26.26,0,0,1-.13,0h-5.48s-.07,0-.11.07a.45.45,0,0,0-.07.11.54.54,0,0,0,0,.14v.14q0,2.46,0,4.92a.67.67,0,0,1,0,.13.45.45,0,0,1-.1.1.31.31,0,0,1-.13,0h-4.64s-.07.05-.15.12v5.63c-.08.09-.11.13-.15.15a.38.38,0,0,1-.14,0h-5.63v-5.49l-.43-.42h-5s-.07,0-.13.08l-.33.36c0,1.63,0,3.23,0,4.82,0,.22-.09.47.14.64h5.76v5.8l-.51.17-.08.38c-.06,0-.14.11-.21.11h-11.7l-.41.39v5.13l.31.31s.07.07.11.08a2.24,2.24,0,0,0,.28,0h5.64l.18.5.38.09c0,.08.11.16.11.24,0,1.64,0,3.28,0,4.94l-.56.27v.29c-.08,0-.15.13-.23.13h-6.12c-.07-.09-.11-.13-.12-.17a.47.47,0,0,1,0-.14v-6a.67.67,0,0,0-.12-.11.27.27,0,0,0-.13,0h-5.34a1.39,1.39,0,0,0-.3.08v5.74l-.48.13-.14.41s-.08.11-.11.11h-5.2q0-3.15,0-6.3s0-.07-.08-.11a34.22,34.22,0,0,0-5.52.06v6.25c.06,0,.1.1.14.1h5.46q0,2.88,0,5.77c-.17.23-.42.14-.64.14H268c-.07.09-.11.12-.13.16a.45.45,0,0,0,0,.14v5.47a.67.67,0,0,1-.11.11.26.26,0,0,1-.13,0H261s-.07,0-.11.07-.07.07-.07.11c0,2,0,3.93,0,5.87.06.06.09.1.13.12a.31.31,0,0,0,.13,0h6.61s.07.05.14.1v5.69s-.07.09-.11.11a.38.38,0,0,1-.14,0h-6.61c-.23-.17-.14-.42-.14-.64,0-1.59,0-3.19,0-4.82l-.38-.41h-11l-.4.38v5.35c.18.23.43.13.65.13h5.13c.07.09.12.13.12.17,0,1.87,0,3.75,0,5.65l-.38.12c-.23.06-.16.28-.21.43s-.16.1-.24.1h-4.66l-.43.47v5.33c-.09.06-.12.11-.16.11h-5.59a.68.68,0,0,1-.12-.12.3.3,0,0,1,0-.13q0-2.74,0-5.48s0-.07-.1-.14h-5.41l-.31.31s-.08.07-.08.11a2.16,2.16,0,0,0,0,.28v11a.68.68,0,0,1-.11.11.26.26,0,0,1-.13,0H225.25s-.08,0-.13.08l-.09.4-.52.19v5.66c-.08.08-.11.13-.15.14a.38.38,0,0,1-.14,0h-5.48c-.23-.17-.14-.42-.14-.64,0-1.69,0-3.37,0-5.06v-.64c-.09-.07-.12-.13-.16-.13h-11l-.18.51-.38.08c0,.08-.11.16-.11.23,0,1.73,0,3.47,0,5.24l.49.42h5.3c.06.08.11.12.11.16q0,2.81,0,5.61a36.56,36.56,0,0,1-5.89,0v-5.71a40.59,40.59,0,0,0-5.92,0V201c-.08.08-.11.13-.15.14a2,2,0,0,1-.28,0H194c-.23.18-.14.43-.14.65,0,1.69,0,3.37,0,5.06v.63c-.1.07-.13.12-.17.12h-5.11l-.12-.77-.4-.11c0-.08-.1-.16-.1-.24,0-1.59,0-3.19,0-4.78,0-.17.09-.37-.14-.57h-5.35c-.07-.08-.13-.12-.13-.15q0-2.81,0-5.62a.67.67,0,0,1,.11-.1.25.25,0,0,1,.13,0h5.2s.08,0,.11-.06.07-.07.07-.11c0-2.06,0-4.12,0-6.16a.68.68,0,0,0-.12-.12.29.29,0,0,0-.13,0h-5.2s-.07,0-.14-.1v-5.72c.35-.2.73-.06,1.09-.08s.75,0,1.12,0h1.12c.37,0,.75,0,1.12,0a2.83,2.83,0,0,0,1.11-.07V177c-.06-.05-.09-.1-.13-.11a2.07,2.07,0,0,0-.28,0H183l-.7-.7q0-2.81,0-5.63c.17-.23.42-.14.64-.14h4.85c.07-.09.11-.12.13-.16a.46.46,0,0,0,0-.14V164.7a.67.67,0,0,1,.11-.11.27.27,0,0,1,.13,0h5.48s.07,0,.15-.09v-6a.39.39,0,0,0-.09-.09.32.32,0,0,0-.13,0h-5.48s-.07-.05-.13-.1v-5.68c.05-.05.08-.11.12-.12a1.86,1.86,0,0,1,.28,0h5.48v5.18a2.33,2.33,0,0,0,0,.28s0,.07.08.11l.3.3a40.3,40.3,0,0,0,6.62-.08v-5.69c-.07,0-.11-.09-.14-.09h-6.86V146.7c.17-.24.42-.14.64-.14h6.31a2.74,2.74,0,0,0,.09-1.13c0-.37,0-.75,0-1.12v-7.87c0-.37,0-.75,0-1.12a2.75,2.75,0,0,1,.09-1.13h5.68c.07-.08.13-.11.13-.15q0-3.16,0-6.32h5.74s.07,0,.17-.12V116.17h5.46s.07,0,.14-.09l.32-.35c0-2,0-3.87,0-5.78a.26.26,0,0,0,0-.13.36.36,0,0,0-.08-.08h-5.7c0,.07-.09.11-.09.14q0,3.15,0,6.3h-5.26l-.15-.79-.38-.08c0-.06-.11-.14-.11-.22q0-2.53,0-5.06a1.38,1.38,0,0,1,.08-.3h5.37l.46-.44v-5.35a.66.66,0,0,1,.1-.1.24.24,0,0,1,.12,0h5.24l.41-.38v-6a.42.42,0,0,0-.1-.09.33.33,0,0,0-.14,0h-5.48s-.07-.05-.15-.12V85.93l-.35-.35s-.07-.07-.11-.08a2.3,2.3,0,0,0-.28,0H207.2l-.42.42q0,2.66,0,5.33s-.06.07-.11.13H201c-.05-.05-.1-.09-.11-.12a2,2,0,0,1,0-.28V85.64a.67.67,0,0,0-.1-.1.25.25,0,0,0-.12,0h-6.36l-.43.39v5.36c-.08.08-.11.13-.15.14a.34.34,0,0,1-.14,0h-5.23l-.42.47V97.2a.8.8,0,0,1-.16.11.5.5,0,0,1-.14,0H183l-.19.65s-.2-.12-.36-.06a.72.72,0,0,0-.1.24c0,1.69,0,3.37,0,5.06,0,.17.09.38-.14.57h-5.63c-.07.08-.13.12-.13.15q0,2.81,0,5.61a.67.67,0,0,0,.11.1.25.25,0,0,0,.12,0h5.48s.08,0,.11.06.07.07.07.11c0,2.06,0,4.12,0,6.16a.68.68,0,0,1-.12.12.28.28,0,0,1-.13,0H170.67s-.07,0-.14.09v5.42a.41.41,0,0,0,.1.09.33.33,0,0,0,.13,0h5.34a.45.45,0,0,1,.14,0s.07.05.13.11v5.67c-.05.06-.08.11-.12.12a.37.37,0,0,1-.14,0h-5.62v-5.18a2.33,2.33,0,0,0,0-.28s0-.07-.08-.11l-.3-.3a40.3,40.3,0,0,0-6.62.08v5.69c.07,0,.11.09.14.09h6.86q0,3.16,0,6.33c-.17.23-.42.14-.64.14h-6.26c-.07.09-.12.12-.13.16a2.15,2.15,0,0,0,0,.28v5.33a.67.67,0,0,1-.11.11.26.26,0,0,1-.13,0h-5a2.16,2.16,0,0,1-.69,1v4.48l1.11,1.06h4.67c.06.09.11.12.11.16,0,1.87,0,3.74,0,5.59a.68.68,0,0,1-.12.12.3.3,0,0,1-.13,0H152.37s-.07,0-.14.1v5.39l.38.42h4.8a35,35,0,0,1,.07,6.11s-.07.07-.11.07h-5a.68.68,0,0,1-.12-.12.29.29,0,0,1,0-.13q0-2.88,0-5.76s0-.07-.1-.14h-5.7s-.08.06-.1.1a.34.34,0,0,0,0,.14c0,5.86,0,11.72,0,17.61l-.78.69h-4.83v5.75c-.08.08-.11.13-.15.14a.34.34,0,0,1-.14,0h-6.47a.43.43,0,0,0-.14,0s-.07.06-.15.13v5.64c-.08.08-.11.12-.15.14a.41.41,0,0,1-.14,0h-5.48a36.85,36.85,0,0,0-.08,6.39.42.42,0,0,0,.11.08.47.47,0,0,0,.14,0h5.46a.67.67,0,0,1,.11.12.27.27,0,0,1,0,.13q0,5.48,0,11a1,1,0,0,1-.07.25l-.49.17v.58c-.07.06-.14.16-.21.16h-5c-.09.08-.15.11-.15.14a1.85,1.85,0,0,0,0,.28q0,2.53,0,5.06c-.18.23-.43.14-.65.14h-5.13c-.07.09-.13.13-.13.16,0,1.87,0,3.75,0,5.61a.68.68,0,0,0,.11.11.27.27,0,0,0,.13,0H127s.07,0,.13.08l.09.4.5.18v5.69c-.05.06-.08.11-.12.12a.37.37,0,0,1-.14,0h-5.62v-6.05l-.43-.42h-5s-.07,0-.13.08l-.33.36c0,1.82,0,3.6,0,5.38,0,.22-.09.47.14.64h5.76q0,2.88,0,5.76c-.17.23-.42.14-.64.14H116c-.07.09-.12.12-.13.16a2.16,2.16,0,0,0,0,.28v5.89a.67.67,0,0,1-.11.11.26.26,0,0,1-.13,0h-5.48s-.08,0-.11.06-.07.07-.07.11c0,1.78,0,3.56,0,5.31l.42.42h5.34c.23.17.14.42.14.64,0,1.73,0,3.45,0,5.14-.09.07-.12.12-.16.13a2.13,2.13,0,0,1-.28,0H104.23a35,35,0,0,0-.07,6.11.44.44,0,0,0,.11.07.5.5,0,0,0,.14,0h5.47a37.9,37.9,0,0,1,0,5.89h-5.39l-.35.35s-.08.07-.09.1a2.07,2.07,0,0,0,0,.28V280c-.18.23-.43.14-.65.14H97.19c-.07.09-.12.13-.12.17q0,5.9,0,11.79l.42.42h6.45s.07.05.13.1v5.43l-.45.22-.15.68H91.54a.42.42,0,0,1-.09-.1.33.33,0,0,1,0-.13q0-3,0-6s-.05-.07-.12-.15H85.69c-.09-.09-.14-.11-.16-.15a.37.37,0,0,1,0-.14v-5.62H91s.07,0,.14-.09l.32-.35c0-2,0-3.87,0-5.78a.26.26,0,0,0,0-.13.36.36,0,0,0-.08-.08h-5.7c0,.07-.09.11-.09.14q0,3.15,0,6.3H79.77c-.24-.17-.14-.42-.14-.64,0-1.91,0-3.83,0-5.7-.08-.07-.11-.12-.15-.13a.41.41,0,0,0-.14,0H73.71V268.37h5.48a1.84,1.84,0,0,0,.28,0s.06-.06.12-.13v-6l-.4-.37H74.13l-.42.41v6.05H66.82c-.23-.17-.14-.42-.14-.64,0-1.69,0-3.37,0-5.06V262c-.09-.07-.12-.13-.16-.13H61.19l-.42.42c0,2,0,4,0,6H55c-.06-.05-.1-.08-.12-.12a.37.37,0,0,1,0-.14V261.9h5.81a1.4,1.4,0,0,0,.1-.36q0-5.7,0-11.39a1.28,1.28,0,0,0-.05-.26.41.41,0,0,0-.11-.08.46.46,0,0,0-.14,0H49.37a.67.67,0,0,1-.11-.11.27.27,0,0,1,0-.13q0-2.67,0-5.34a1.4,1.4,0,0,1,.08-.3H54.7c.08-.08.13-.11.15-.15a.32.32,0,0,0,0-.13q0-2.74,0-5.48s-.05-.07-.1-.13H36.41c-.05,0-.11.08-.11.12a1.87,1.87,0,0,0,0,.28v5.48H30.53a29.83,29.83,0,0,1-.09-5.82.41.41,0,0,1,.11-.08.46.46,0,0,1,.14,0h5.18l.42-.42V226l-.47-.42H30.5c-.06-.09-.11-.12-.11-.16,0-1.87,0-3.74,0-5.65l.48-.14.12-.41a.71.71,0,0,1,.24-.1h4.92c.24-.17.14-.42.14-.64,0-1.59,0-3.19,0-4.82l-.39-.42H24.64c-.08-.08-.13-.11-.15-.15a.32.32,0,0,1,0-.13q0-2.6,0-5.2s-.05-.07-.12-.15H13.57l-.1-.47a1.23,1.23,0,0,0-.8-.47v-5.43c-.39-.22-.77-.08-1.13-.11s-.75,0-1.12,0H9.29c-.38,0-.75,0-1.12,0A2.85,2.85,0,0,1,7.06,201v-5.72c.06-.05.09-.11.13-.11h5.33a.67.67,0,0,1,.11.11.26.26,0,0,1,0,.13c0,1.73,0,3.47,0,5.23l.38.41H24.36s.09-.07.11-.11a.38.38,0,0,0,0-.14q0-2.74,0-5.48c-.17-.23-.42-.14-.64-.14H18.7c-.07-.09-.13-.12-.13-.16,0-1.87,0-3.75,0-5.65l.51-.18.09-.38c.08,0,.16-.11.24-.11h4.5c.18,0,.37.08.55-.11V183c-.05,0-.08-.09-.12-.11a.4.4,0,0,0-.14,0H13.08l-.42.42c0,1.76,0,3.53,0,5.31,0,0,0,.07-.1.14H7.14s-.08-.06-.1-.1a.35.35,0,0,1,0-.14c0-1.73,0-3.47,0-5.22l-.47-.43H.62l-.09-.46-.5-.18v-5.13c0-.05.08-.11.11-.11a1.87,1.87,0,0,1,.28,0H7v5.48a2,2,0,0,0,0,.28s.06.07.13.15H12c.22,0,.47.09.64-.14v-5.76h5.73s.07,0,.18-.11v-6.35H24.3s.07,0,.11-.07a41.52,41.52,0,0,0,0-5.81H19l-.48.37v5.51h-5.5l-.41.44v6H7v-5.8l.51-.17.08-.38c.06,0,.14-.11.22-.11h4.79v-12a36.54,36.54,0,0,0-5.59,0v5.94c-.09.09-.11.14-.15.16a.38.38,0,0,1-.14,0H0v-5.5l.74-.68H6.58L7,158V146.55H12.5s.07-.05.11-.08a44.76,44.76,0,0,0-.06-6.36H7.14c0,.07-.1.1-.1.14q0,3.15,0,6.3H.63l-.1-.48L0,145.89v-5.81H6.62l.43-.46V121.91c.08-.06.11-.11.15-.12a2.18,2.18,0,0,1,.28,0h5.05a30,30,0,0,0,.07-5.55.43.43,0,0,0-.11-.07.5.5,0,0,0-.14,0H7.69l-.14-.45L7,115.17V110.4l.7-.7H18.56v-5.75c.08-.09.11-.15.15-.16a1.85,1.85,0,0,1,.28,0h5.34c.23-.17.14-.42.14-.64,0-1.91,0-3.83,0-5.7-.09-.07-.12-.13-.15-.13H12.66V91.41h5.77c.23-.17.14-.42.14-.64,0-1.73,0-3.45,0-5.14.09-.07.12-.11.16-.13a.45.45,0,0,1,.14,0h5.47a.67.67,0,0,0,.11-.11.27.27,0,0,0,0-.13c0-2.05,0-4.11,0-6.11a1,1,0,0,0-.18-.11.55.55,0,0,0-.14,0H18.81l-.13,0a39.79,39.79,0,0,1,0-5.87h5.67c.08-.08.14-.11.14-.15a1.89,1.89,0,0,0,0-.28q0-2.53,0-5.06c-.17-.23-.42-.14-.64-.14H19.19L19.1,67l-.49-.17V55.22a.4.4,0,0,1,.1-.09.32.32,0,0,1,.13,0h5.48s.07.05.15.12V67.07l.35.35s.07.07.11.08a2.26,2.26,0,0,0,.28,0H30l.42-.42q0-2.94,0-5.89s.06-.07.11-.13h5.32l.38-.34c0-.06.09-.1.09-.14a2.43,2.43,0,0,0,0-.28v-5a.68.68,0,0,0-.12-.12.29.29,0,0,0-.13,0H31.12S31,55.06,31,55l-.1-.39-.5-.2V48.76c.06-.05.1-.11.13-.11H43.18a.67.67,0,0,1,.11.11.26.26,0,0,1,0,.13q0,2.74,0,5.48s0,.08.08.14l.4.09.18.5h4.86l.31-.31s.08-.07.08-.11a2.22,2.22,0,0,0,0-.28V43.16l-.42-.42H43.35V30.48c.05-.05.08-.11.12-.12a1.86,1.86,0,0,1,.28,0h5.48q0,2.88,0,5.75s.06.07.08.1l.44.15.1.44h4.89c.05-.06.11-.1.11-.13q0-3.16,0-6.31h5.89v-5.5a37.17,37.17,0,0,1,5.85-.07s.08.07.08.11q0,2.73,0,5.46h-5.5l-.41.44v6H55.31s-.07,0-.13.09l-.32.35c0,1.77,0,3.5,0,5.22a.26.26,0,0,0,0,.13.36.36,0,0,0,.08.08h5.7c0-.07.1-.1.1-.14q0-2.87,0-5.74H66.5s.07,0,.18-.11V30.36H79.49c.07-.09.12-.13.12-.17q0-2.73,0-5.46h5.49l.44-.45v-6H91l.43-.42V12.35h5.63q0,2.74,0,5.49l.42.42h6.43s.07,0,.16.11v5.89l.42.47h4.86l.14-.79.39-.08c0-.08.11-.15.11-.23q0-5.2,0-10.41a1.44,1.44,0,0,1,.09-.84h11.6s.09.07.11.11a.39.39,0,0,1,0,.14v5.63h-5.76s-.07.06-.13.11v5.89l.37.46h4.54l.39-.39.08-.39.51-.17V18.26h5.47l.43-.42v-12h5.49l.42-.42c0-1.75,0-3.53,0-5.31,0,0,0-.07.09-.14h6.83a41.22,41.22,0,0,1,0,5.87h-6.8c-.07.08-.13.12-.13.15q0,6,0,12.09a.67.67,0,0,0,.11.1.26.26,0,0,0,.13,0h6.36l.43-.4V12.5c.08-.08.11-.13.15-.15a.39.39,0,0,1,.14,0h4.68l.18-.51.38-.08c0-.06.11-.14.11-.22,0-1.64,0-3.28,0-4.92a1.51,1.51,0,0,1,.07-.72h5.72c.23-.39.09-.77.11-1.13s0-.84,0-1.27V2.38c0-.42,0-.84,0-1.27A2.83,2.83,0,0,1,152.28,0h5.15c.05.06.1.09.11.13a2.06,2.06,0,0,1,0,.28V5.46l.42.42h5.32s.07.05.16.12v6.2c.08.08.11.14.15.15a1.88,1.88,0,0,0,.28,0H176l.42-.42c0-3.91,0-7.84,0-11.78,0,0,0-.07.09-.14h11.33s.08.06.1.1a.34.34,0,0,1,0,.14c0,1.73,0,3.47,0,5.23l.47.43h5.33a.82.82,0,0,1,.11.16.52.52,0,0,1,0,.14q0,2.81,0,5.63a.71.71,0,0,0,0,.13l.4.4h6.61v5.18a2.38,2.38,0,0,0,0,.28s0,.07.09.13l.35.32h5.22a.26.26,0,0,0,.13,0,.36.36,0,0,0,.08-.08v-5.7c-.07,0-.1-.1-.14-.1h-5.74V6c.11-.07.14-.11.18-.11h5.73v5.88a.47.47,0,0,0,0,.14.41.41,0,0,0,.08.11l.32.32h5l.46-.38V5.88h5.76c.24.17.14.42.14.64,0,1.91,0,3.83,0,5.7.08.07.12.13.15.13h5.61a.67.67,0,0,1,.1.1.25.25,0,0,1,0,.12c0,1.87,0,3.73,0,5.55.09.07.13.12.16.12H230a.68.68,0,0,0,.11-.11.27.27,0,0,0,0-.13q0-2.74,0-5.48s0-.08.08-.13a3.6,3.6,0,0,1,1.08,0c.37,0,.75,0,1.12,0H237a.68.68,0,0,0,.12-.12.29.29,0,0,0,0-.13q0-3,0-6s0-.07.09-.14H243a.41.41,0,0,1,.09.1.32.32,0,0,1,0,.13c0,1.92,0,3.84,0,5.8l.49.41h5.29c.07.08.12.12.12.15a2.17,2.17,0,0,1,0,.28v5l.42.42h18.25s.07,0,.11.07.07.07.07.11c0,1.78,0,3.55,0,5.36l-.48.13c-.24.13,0,.47-.13.7a.73.73,0,0,1-.24.09h-6c-.24.17-.14.42-.14.64,0,1.63,0,3.27,0,4.85.08.07.12.13.15.13h12.79q0,3.15,0,6.3s0,.07.08.11a34.22,34.22,0,0,0,5.52-.06V30.46c-.06,0-.1-.1-.14-.1h-5.46V24.88c.17-.23.42-.14.64-.14h4.4l0-.75.53-.19V18.42c.08-.08.11-.13.15-.15a.32.32,0,0,1,.13,0h5l.69.79c0,3.64,0,7.38,0,11.13,0,0,0,.07.09.14h5.72c.2-.34.06-.72.08-1.08s0-.75,0-1.12V24.76h6.91c.06.05.12.08.12.12a1.86,1.86,0,0,1,0,.28v5.2h-6.58s-.07,0-.13.09l-.32.35c0,2,0,3.87,0,5.78a.26.26,0,0,0,0,.13.37.37,0,0,0,.08.08h6.82c0-.07.1-.1.1-.14q0-3.15,0-6.3H304c.24.17.14.42.14.64,0,1.91,0,3.83,0,5.7.08.07.12.13.15.13H315c.23-.18.14-.43.14-.65,0-1.69,0-3.37,0-5.06v-.63c.09-.07.13-.13.16-.13h5.61a.67.67,0,0,1,.11.11.26.26,0,0,1,0,.13q0,2.74,0,5.48s0,.08.08.14l.4.09.18.5h5.17c.19-.35.05-.73.08-1.09s0-.66,0-1V32.48c0-.33,0-.66,0-1a2.92,2.92,0,0,1,.07-1.11h6.84c.05.05.1.08.11.12a.41.41,0,0,1,0,.14v6.18h-6.62l-.41.44v5.47h-5.34a.74.74,0,0,0-.24.09l-.32.33V48a.55.55,0,0,0,0,.14.61.61,0,0,0,.08.13l.36.33h4.82c.22,0,.47.09.64-.14V42.74h7V36.83h5.76c.24.17.14.42.14.64,0,1.73,0,3.45,0,5.13-.08.07-.12.13-.15.13h-5.33l-.41.41v5.07l.4.42h5.36c.08.08.13.11.13.15a2,2,0,0,1,0,.28v5.37a1.81,1.81,0,0,1,.48.17,4.4,4.4,0,0,1,.51.49h4.52l.42-.47V48.76a.78.78,0,0,1,.16-.11.48.48,0,0,1,.14,0h5.18l.42-.42c0-1.77,0-3.55,0-5.33,0,0,.05-.07.1-.13h5.4s.09.07.11.11a.38.38,0,0,1,0,.14q0,2.74,0,5.48c-.17.24-.42.14-.64.14H351.8c-.07.08-.13.12-.13.15,0,1.87,0,3.75,0,5.65l.51.18.08.38c.07,0,.15.11.22.11h4.22c.18,0,.37-.07.58.11v5.34l.43.46h6.62v5.45c.21.3.45.56.84.5v.38c.07,0,.15.14.22.14h10.75q0,2.74,0,5.48s.06.07.13.15h5.62c.09.08.14.11.16.15a.37.37,0,0,1,0,.14v5.48c.17.24.42.14.64.14h5.13c.07-.08.13-.11.13-.15a2,2,0,0,0,0-.28V73.27c.17-.24.42-.14.64-.14h5.13c.07.08.13.11.13.15a2,2,0,0,1,0,.28v5.34c.17.23.42.14.64.14h6.26c.07.08.13.12.13.15q0,3.09,0,6.18c.17.23.42.14.64.14h4.85c.07.08.13.12.13.15q0,2.88,0,5.76H400.9V86.23a2.33,2.33,0,0,0,0-.28s0-.07-.08-.11l-.3-.3a40.3,40.3,0,0,0-6.62.08v5.69c.07,0,.11.09.14.09h6.86v5.48a2,2,0,0,0,0,.28s.06.07.13.15h4.85c.22,0,.47.09.64-.14V91.41h5.76c.24.17.14.42.14.64q0,5.13,0,10.26v1.06l.34.34s.07.07.11.08a2.33,2.33,0,0,0,.28,0h5a.68.68,0,0,0,.11-.12.27.27,0,0,0,0-.13q0-3,0-6s0-.07.07-.11.07-.07.11-.07h5.59a.68.68,0,0,1,.12.12.3.3,0,0,1,0,.13q0,3,0,6s0,.07.11.16H430c.08.08.12.11.14.15a.32.32,0,0,1,0,.13q0,6,0,11.94s0,.07.1.14h6.54l.3-.3s.07-.06.09-.1a.42.42,0,0,0,0-.14V103.93c.17-.23.42-.14.64-.14H443c.07.09.13.12.13.15q0,6.11,0,12.22h-5.48a2,2,0,0,0-.28,0s-.07.06-.15.13c0,1.59,0,3.22,0,4.85,0,.22-.09.47.14.64h5.76q0,2.88,0,5.76s.06.07.13.15h4.86l.1.47.45.16a.43.43,0,0,1,.08.11.49.49,0,0,1,0,.14V134a.68.68,0,0,0,.12.11.27.27,0,0,0,.13,0h5.34a1.07,1.07,0,0,0,.25-.06.45.45,0,0,0,.07-.11.52.52,0,0,0,0-.14v-6a30.2,30.2,0,0,1,5.29-.05l.09.41.52.18v11.28l.34.34s.07.08.1.09a2,2,0,0,0,.28,0h6.32V158l.43.39h4.49l.41-.38v-5.4a41.87,41.87,0,0,1,5.92,0v5.67c-.08.07-.11.13-.15.13h-5.62a34.2,34.2,0,0,0-.08,6.11.42.42,0,0,0,.11.08.47.47,0,0,0,.14,0h5.46a.68.68,0,0,1,.11.12.27.27,0,0,1,0,.13q0,2.74,0,5.48s0,.07.11.18h5.68a47.52,47.52,0,0,1,0,6.41,1.2,1.2,0,0,1-.26.06h-4.87l-.63-.63a1,1,0,0,1-.07-.25c0-1.73,0-3.46,0-5.15l-.42-.43h-5.49V165l-.43-.42H468s-.07,0-.13.08l-.33.36c0,1.63,0,3.23,0,4.82,0,.22-.09.47.14.64h5.2v11.68l.56.27v.29c.08,0,.15.13.23.13h5c.07.09.12.12.13.16a2.2,2.2,0,0,1,0,.28v5.33a.67.67,0,0,0,.11.11.26.26,0,0,0,.13,0h5.23l.43-.4V183c.08-.08.11-.12.15-.14a.33.33,0,0,1,.13,0h5.2s.07.05.15.12v5.36l.34.34s.07.08.1.08a2.1,2.1,0,0,0,.28,0h6.17a.68.68,0,0,1,.1.1.25.25,0,0,1,0,.12c0,4,0,8,0,12-.08.07-.12.13-.15.13h-6.88q0-6.1,0-12.2s0-.07-.07-.11a33.94,33.94,0,0,0-5.53.05V201c.06.05.1.11.13.11h5.47v6.32c-.17.24-.42.14-.64.14h-4.85c-.07.08-.13.12-.13.15q0,2.67,0,5.33a.68.68,0,0,0,.11.1.25.25,0,0,0,.12,0h5.27a.87.87,0,0,1,.12.17.48.48,0,0,1,0,.14V219a.67.67,0,0,0,.11.11.27.27,0,0,0,.13,0h12.51s.08,0,.11.06.07.07.07.11c0,2.06,0,4.12,0,6.16a.67.67,0,0,1-.12.11.28.28,0,0,1-.13,0h-5.22l-.41.39v11.59l.31.31s.07.08.11.08a2.21,2.21,0,0,0,.28,0h5a.68.68,0,0,1,.11.11.26.26,0,0,1,0,.13c0,1.86,0,3.73,0,5.55-.1.07-.14.12-.17.12h-5.59a.68.68,0,0,1-.12-.12.29.29,0,0,1,0-.13q0-2.74,0-5.48s0-.07-.09-.14h-6.83a.41.41,0,0,0-.09.1.32.32,0,0,0,0,.13c0,3.7,0,7.4,0,11.15l.53.4h6.37c.07.08.13.12.13.15q0,6,0,11.94h-6.62l-.39.44v17.45l.32.32s.07.08.11.08a2.16,2.16,0,0,0,.28,0h6.17a36.39,36.39,0,0,1,.09,6.38s-.07.09-.1.09h-6.88v-6a1.84,1.84,0,0,0,0-.28s-.06-.06-.13-.12H485.4l-.18.5-.48.11c0,1.67,0,3.35,0,5,0,.08.08.15.11.22l.38.08.17.51h5v5.49l.46.43h6.47c.06.08.11.12.11.16q0,3.09,0,6.17A44,44,0,0,1,491,299l-.07-.69-.52-.19v-5.38c-.08-.08-.11-.13-.15-.14a.39.39,0,0,0-.14,0h-4.68l-.17.51-.38.08c0,.06-.11.14-.11.21,0,1.64,0,3.28,0,4.92v.63a1,1,0,0,1-.18.12.51.51,0,0,1-.14,0H479a33.38,33.38,0,0,0,0,5.61h5.67c.08.08.12.11.14.15a.31.31,0,0,1,0,.13q0,2.74,0,5.48s0,.07.11.15h5.4a50.12,50.12,0,0,1,0,6.46h-4.89l-.45-.73-.12.12a1.09,1.09,0,0,1-.06-.25c0-1.73,0-3.46,0-5.14l-.42-.44h-5.49v-5.32a.5.5,0,0,0,0-.14.62.62,0,0,0-.09-.14l-.35-.32h-5.22a.26.26,0,0,0-.13,0,.36.36,0,0,0-.08.08v5.7c.07,0,.1.1.14.1h5.74V317H468l-.34.34s-.08.07-.08.11a2.2,2.2,0,0,0,0,.28v11l-.51.18-.08.38c-.07,0-.14.11-.22.11h-12a.92.92,0,0,0-.12.17.5.5,0,0,0,0,.14v5.46a.67.67,0,0,1-.12.11.27.27,0,0,1-.13,0h-5.48s-.08,0-.11.06a.45.45,0,0,0-.07.11.53.53,0,0,0,0,.14V346.7l-.7.72H443.1q0-2.73,0-5.46s0-.07-.07-.11l-.45-.16-.08-.42a26.63,26.63,0,0,0-5.26.07v6.06h5.88v5.76c-.17.23-.42.14-.64.14h-5.13c-.07-.09-.12-.12-.13-.16a2.15,2.15,0,0,1,0-.28v-5l-.42-.42h-6.45s-.07.05-.15.12v5.64c-.08.08-.11.13-.15.14a.38.38,0,0,1-.14,0H424.4c-.23.17-.14.42-.14.64,0,1.73,0,3.45,0,5.2l-.47.1-.18.53h-4.82l-.43.42v5.49H406.93l-.4.52v5.25c-.08.07-.11.12-.15.13a.41.41,0,0,1-.14,0H401c-.23-.17-.14-.42-.14-.64,0-1.63,0-3.26,0-4.85l-.34-.34s-.07-.07-.11-.08H388v-5.32a.5.5,0,0,0,0-.14.62.62,0,0,0-.09-.14l-.35-.32h-5.22a.26.26,0,0,0-.13,0,.36.36,0,0,0-.08.08v5.7c.07,0,.1.1.14.1H388v5.91H376.14V366a.37.37,0,0,0,0-.14s-.07-.06-.13-.12h-5.39l-.37.4v5.07l.41.42h5.49q0,3.15,0,6.3s0,.07-.12.17H364.33v-6a1.85,1.85,0,0,0,0-.28s-.06-.06-.13-.12h-6l-.18.5-.67.07c0,.07-.09.1-.09.14,0,1.78,0,3.55,0,5.3l.42.43h6.61v5.76c-.17.23-.42.14-.64.14h-6.26c-.07-.09-.12-.12-.13-.16a2.1,2.1,0,0,1,0-.28v-5.33a.67.67,0,0,0-.11-.1.25.25,0,0,0-.13,0h-5.2s-.08,0-.11-.06a.43.43,0,0,1-.07-.11.5.5,0,0,1,0-.14v-6a30.32,30.32,0,0,0-5.28-.05l-.1.4-.52.19v11.55c-.08.09-.11.15-.15.15a1.84,1.84,0,0,1-.28,0H334.09c-.24-.17-.14-.42-.14-.64,0-1.73,0-3.45,0-5.14-.09-.07-.12-.12-.16-.13a2.09,2.09,0,0,0-.28,0h-5.93l-.18-.51-.38-.08c0-.07-.11-.15-.11-.23,0-1.69,0-3.37,0-5.06,0-.18.07-.37-.1-.56h-5.17l-.1.43-.44.15s-.09.07-.09.1q0,2.81,0,5.61a.67.67,0,0,1-.11.1.25.25,0,0,1-.13,0h-5.48s-.08,0-.11.06-.08.07-.08.11c0,1.78,0,3.56,0,5.32l.42.42h5.33s.07.06.13.11v6.24c-.05.05-.09.1-.12.11a2,2,0,0,1-.28,0h-4.5a1.54,1.54,0,0,0-1-1q0-2.67,0-5.34s-.06-.07-.13-.15H304.29c-.1-.09-.15-.11-.16-.15a.37.37,0,0,1,0-.14v-5.62H309l1-1c0-1.56,0-3.15,0-4.74,0,0-.06-.07-.08-.1l-.44-.15-.1-.44h-5.17c-.05.06-.11.1-.11.13q0,3.16,0,6.31h-5.77c-.23-.17-.14-.42-.14-.64,0-1.73,0-3.45,0-5.2l-.47-.1-.17-.49h-6.28a.41.41,0,0,0-.09.1.33.33,0,0,0,0,.13c0,1.83,0,3.66,0,5.53l-.51.18-.08.38c-.05,0-.13.12-.2.12H279.7a1.17,1.17,0,0,1-.26-.06.43.43,0,0,1-.08-.11.49.49,0,0,1,0-.14v-5.51l-.63-.19s.08-.2,0-.36a.77.77,0,0,0-.25-.11h-4.36a3.72,3.72,0,0,0-.43.06V378c-.08.07-.12.13-.15.13H268a.67.67,0,0,1-.11-.11.26.26,0,0,1,0-.13q0-2.74,0-5.48s0-.08-.08-.14l-.4-.09-.18-.5h-6.27s-.09.07-.11.11a.38.38,0,0,0,0,.14q0,3,0,6c-.17.23-.42.14-.64.14H255c-.07-.09-.13-.12-.13-.16,0-2.06,0-4.12,0-6.17a.67.67,0,0,1,.11-.11.26.26,0,0,1,.13,0h5.23l.43-.41v-5.34c.09-.09.11-.15.15-.16a1.84,1.84,0,0,1,.28,0h6.47c.23-.18.14-.43.14-.65q0-5.34,0-10.69v-.92c.09-.07.13-.13.16-.13h5.61a.68.68,0,0,1,.11.11.27.27,0,0,1,0,.13q0,2.74,0,5.48s0,.07.09.15h5.43a.4.4,0,0,0,.09-.1.32.32,0,0,0,0-.13q0-2.74,0-5.48s.05-.07.12-.15H291c.09-.08.15-.11.15-.15a1.87,1.87,0,0,0,0-.28v-5.48h12.94q0,2.87,0,5.74s0,.07.07.11a41.52,41.52,0,0,0,5.81,0V347.9l-.37-.48Z"/></g></g></svg>