<svg xmlns="http://www.w3.org/2000/svg" viewBox="0 0 449.2 461.09"><defs><style>.cls-1{fill:#428b01;}.cls-2{fill:#59bb01;}</style></defs><title>Asset 1</title><g id="Layer_2" data-name="Layer 2"><g id="Layer_1-2" data-name="Layer 1"><path class="cls-1" d="M402.93,374.76c1.32,3.09,2.63,6,3.86,9,4,9.77,7.23,19.83,10.41,29.9q2.68,8.5,5.63,16.92a44.15,44.15,0,0,0,2.69,5.93,23.79,23.79,0,0,0,2.47,3.62,7.78,7.78,0,0,0,3.92,2.63,10.19,10.19,0,0,1,1.84.76A4.62,4.62,0,0,1,436,450a13,13,0,0,1-2,3.1,21.62,21.62,0,0,1-8.31,5.63,32.53,32.53,0,0,1-9.85,2.38,3.3,3.3,0,0,1-.11-.64,109.14,109.14,0,0,0-1.39-20.17c-3.15-20.31-10.08-39.4-18.83-57.89a4.81,4.81,0,0,0-.31-.46l-1.08.9a154.71,154.71,0,0,1-34.64,22.5,133.77,133.77,0,0,1-33.35,10.73,123.71,123.71,0,0,1-27.86,1.85,135.18,135.18,0,0,1-43.61-9.61,171,171,0,0,1-31.41-16.53,240.75,240.75,0,0,1-44.26-38,158.85,158.85,0,0,1-31-50.28,253.07,253.07,0,0,1-10.41-34.22c-2.67-11.32-4.84-22.74-7-34.16-2.79-14.87-5.57-29.74-9-44.47-5.78-24.52-13.67-48.31-24.78-71A317.66,317.66,0,0,0,62.86,65.4a409,409,0,0,0-40.71-45Q11.86,10.47,1,1.17A4.59,4.59,0,0,1,0,0C1.06.11,2.12.21,3.17.34c5.51.69,11,1.36,16.51,2.08Q30.11,3.79,40.53,5.24C47,6.14,53.37,7,59.77,8q11.45,1.75,22.88,3.64c6.79,1.12,13.57,2.28,20.33,3.51q12.31,2.25,24.59,4.66,20.57,4,40.95,9a762.29,762.29,0,0,1,85.65,25.55,495.16,495.16,0,0,1,52,22.45,348.13,348.13,0,0,1,49.56,30.15,248.58,248.58,0,0,1,48.66,47.15,241,241,0,0,1,28.32,44.84,172.34,172.34,0,0,1,13.1,37.9,150.1,150.1,0,0,1,2.87,19.35q.58,7,.47,14.11a140.84,140.84,0,0,1-8.88,46.87A156.72,156.72,0,0,1,411.91,365c-2.63,3.06-5.46,6-8.2,8.93ZM40.25,19.18l-.11-.06.12.06a10.51,10.51,0,0,0,.89,1.27c3.38,3.58,6.8,7.12,10.15,10.72,2.38,2.56,4.7,5.18,7,7.81,2.1,2.39,4.18,4.81,6.2,7.27,3,3.66,6,7.32,8.88,11.07q4.6,6,8.94,12.21Q86.85,76,91.14,82.64c2.78,4.32,5.43,8.72,8,13.16a3.12,3.12,0,0,0,2.52,1.76c3.19.41,6.37.95,9.56,1.32,2.32.27,4.66.44,7,.5a54.94,54.94,0,0,0,5.7-.25,52.77,52.77,0,0,0,5.52-.65,80.57,80.57,0,0,0,11-3c1.51-.51,3-1,4.58-1.38a48.89,48.89,0,0,1,7-1.17,36.54,36.54,0,0,1,6.59.26c1,.06,1.94.24,2.91.37l.26-.41a2.94,2.94,0,0,1-.62-.27c-3-2.24-6-4.52-9.06-6.72C145.05,81,138,75.86,130.77,70.88c-6.16-4.25-12.44-8.34-18.77-12.34-6.74-4.26-13.56-8.39-20.41-12.46-5.56-3.3-11.2-6.48-16.86-9.62q-6.63-3.68-13.4-7.11C55.08,26.19,48.77,23.13,42.47,20,41.76,19.69,41,19.47,40.25,19.18Zm207.4,152a.35.35,0,0,0,0,.09s0,0,.07,0l-.11-.11a14.69,14.69,0,0,0-1.11-1.48c-2.83-2.94-5.64-5.9-8.53-8.79s-6.08-6-9.15-8.92q-6.75-6.51-13.53-13-2.83-2.72-5.69-5.4c-1-.91-2-1.79-3-2.68l-6.95-6.17c-1.62-1.44-3.23-2.89-4.88-4.3-2.18-1.87-4.39-3.71-6.58-5.57-2-1.69-3.94-3.42-5.95-5.09-2.31-1.92-4.68-3.78-7-5.7a10.74,10.74,0,0,0-4.5-2.44c-.47-.11-.94-.25-1.41-.37a33,33,0,0,0-8.22-1.28c-.57,0-1.14-.13-1.71-.17a7.12,7.12,0,0,0-1.05,0c-.53,0-1.05.11-1.58.16-2,.2-4.07.25-6.05.63-4.72.91-9.4,2.08-14.12,3a59,59,0,0,1-8.28.91,38.21,38.21,0,0,1-8-.21c-2.78-.47-5.61-.7-8.36-1.31-3-.66-6-1.63-8.95-2.47-.4-.11-.8-.42-1.27,0,.18.39.34.8.55,1.18.89,1.63,1.85,3.23,2.68,4.9,1.89,3.77,3.77,7.54,5.55,11.36,1.93,4.14,3.85,8.28,5.57,12.51q3.4,8.37,6.46,16.87c2.93,8.12,5.36,16.41,7.62,24.74a1.59,1.59,0,0,0,1.27,1.32c3.09.76,6.15,1.64,9.26,2.28a73.58,73.58,0,0,0,11.65,1.66c2.74.12,5.47.38,8.2.48,1.27,0,2.56-.21,3.83-.21a51.79,51.79,0,0,0,7.67-.56c2.71-.39,5.44-.63,8.11-1.18,5.92-1.22,11.81-2.61,17.72-3.88,4.05-.87,8.12-1.72,12.2-2.42a78.15,78.15,0,0,1,10.1-1.27,69.7,69.7,0,0,1,14.33.46q4.5.76,9,1.57C245,170.54,246.31,170.86,247.65,171.14ZM364.22,324.89c-.22-.45-.32-.7-.45-.92-2.34-3.81-4.65-7.64-7-11.43-3.93-6.26-7.86-12.53-11.89-18.74-3.18-4.91-6.49-9.73-9.77-14.57-2.08-3.08-4.16-6.17-6.31-9.2-3.2-4.51-6.46-9-9.68-13.48a2.28,2.28,0,0,0-1.29-1c-.64-.17-1.24-.49-1.87-.67a43.49,43.49,0,0,0-8.39-1.87c-2.68-.24-5.35-.6-8-.74a48.52,48.52,0,0,0-8.73.49c-2.19.28-4.4.46-6.56.87a145,145,0,0,0-18.08,4.7c-3.91,1.29-7.8,2.66-11.68,4.05-3.71,1.34-7.38,2.76-11.08,4.14-4.89,1.83-9.76,3.73-14.69,5.47a195.11,195.11,0,0,1-24.93,7.36c-2.63.55-5.29,1-7.95,1.4-1.61.26-3.24.41-4.86.57-1.84.19-3.69.46-5.54.46-2.79,0-5.57,0-8.37-.16a83.46,83.46,0,0,1-9.58-1.22,59.81,59.81,0,0,1-12.56-3.77c-.62-.27-1.28-.46-2-.71a2.73,2.73,0,0,0,0,.56c.89,3,1.74,5.95,2.7,8.89,1,3.2,2.11,6.4,3.34,9.53,1.81,4.57,3.68,9.12,5.71,13.59A126.49,126.49,0,0,0,172.44,323c1.76,2.82,3.54,5.62,5.46,8.33,1.76,2.49,3.68,4.87,5.61,7.23s3.91,4.81,6,7c3.43,3.6,7,7.05,10.52,10.59a3.44,3.44,0,0,0,2,1c1.74.29,3.5.48,5.22.85,3.83.84,7.74.62,11.61,1,1.13.11,2.29-.21,3.43-.21a54.35,54.35,0,0,0,7.93-.55c2.18-.32,4.4-.44,6.55-.9,4.36-.93,8.7-2,13-3.08A180.18,180.18,0,0,0,271,347.1c4.7-1.85,9.34-3.84,14-5.77,5.24-2.17,10.44-4.42,15.71-6.51,5.52-2.19,11.05-4.33,16.65-6.29a117.94,117.94,0,0,1,13.66-3.85,70.45,70.45,0,0,1,11.76-1.78,61,61,0,0,1,11.83.19c2,.29,3.92.62,5.87,1C361.68,324.28,362.82,324.58,364.22,324.89Zm-233-150.29a6.14,6.14,0,0,0,.06,1c.73,3,1.49,6,2.21,9,.92,3.82,1.87,7.64,2.71,11.48,1.08,4.91,2.09,9.84,3.1,14.77,1,5.1,2.06,10.21,3,15.32.87,4.59,1.64,9.21,2.51,13.8.73,3.86,1.56,7.7,2.3,11.55q2.12,11,4.89,21.84a2,2,0,0,0,1.82,1.73c2.82.5,5.62,1.15,8.45,1.6a52.24,52.24,0,0,0,7,.75,84.34,84.34,0,0,0,16.43-.76c2.17-.38,4.36-.67,6.52-1.08a131.63,131.63,0,0,0,16.14-4.28c3.79-1.24,7.54-2.6,11.26-4,4.47-1.7,8.91-3.49,13.34-5.29,4.1-1.67,8.16-3.44,12.27-5.08,4.69-1.87,9.38-3.73,14.14-5.42,4.25-1.51,8.55-2.92,12.9-4.13,3.57-1,7.22-1.69,10.86-2.36a52.27,52.27,0,0,1,7.09-.84c3.06-.14,6.13-.06,9.19,0a22.8,22.8,0,0,1,3.69.32c2.39.43,4.75,1,7.13,1.46a3.63,3.63,0,0,0,.95-.11l-3.58-4.69c-1.53-2-3-4-4.6-6-1.88-2.4-3.81-4.77-5.71-7.16-2.32-2.9-4.62-5.82-6.95-8.71q-2.33-2.89-4.71-5.74c-1.53-1.84-3.08-3.66-4.63-5.47-1.21-1.41-2.43-2.81-3.64-4.23-1.38-1.61-2.73-3.25-4.12-4.85s-3.06-3.44-4.59-5.16l-6-6.76c-1.35-1.52-2.68-3.07-4.07-4.55a6,6,0,0,0-1.79-1.32c-1.28-.59-2.62-1.07-4-1.54a66,66,0,0,0-10.48-2.87,53.09,53.09,0,0,0-10.79-1.14c-3.28.08-6.56-.21-9.83.24-2,.27-4,.31-5.93.6-3.05.45-6.09,1-9.13,1.57-4,.74-8,1.54-12,2.31-2,.39-4.07.81-6.12,1.13s-4.37.62-6.56.86c-2.54.28-5.09.68-7.64.71-3.85,0-7.71.16-11.57-.16-3.13-.26-6.24-.64-9.32-1.21a93.28,93.28,0,0,1-18.16-5.4C134,175.78,132.69,175.21,131.21,174.6Zm210.6-61.42a7.12,7.12,0,0,0,.11,1c.47,1.66,1,3.3,1.42,5a71.13,71.13,0,0,1,2.17,12.37c.16,2.42.38,4.84.5,7.27.08,1.64.05,3.29,0,4.93-.06,2-.09,4.08-.3,6.1-.25,2.5-.61,5-1,7.47-.61,3.56-1.15,7.15-2,10.65-1.57,6.21-3.3,12.39-5.11,18.54s-3.76,12-5.61,18c-1.64,5.32-3.16,10.68-4.41,16.12a108.41,108.41,0,0,0-2.85,17c-.18,2.69-.33,5.38-.53,8.07a2.83,2.83,0,0,0,.64,2c2.25,3.07,4.54,6.1,6.75,9.2,4.72,6.63,9.52,13.22,14.07,20,5.82,8.63,11.45,17.39,17.1,26.13,2.62,4.05,5.08,8.21,7.62,12.32.51.83,1.06,1.64,1.59,2.47.85-3.13,1.57-6.14,2.48-9.09a159.68,159.68,0,0,1,9.18-22.35c2.2-4.55,4.6-9,6.86-13.54,3.07-6.16,6.1-12.33,9.13-18.51.55-1.11,1.07-2.24,1.54-3.39,1.63-3.92,3.37-7.81,4.82-11.8,1.59-4.36,3-8.79,4.32-13.25a90.78,90.78,0,0,0,3.26-16.61c.23-2.5.61-5,.73-7.5.13-2.88,0-5.77,0-8.66a2.32,2.32,0,0,0-.28-1.12c-2.29-3.84-4.53-7.72-7-11.48a148.52,148.52,0,0,0-9.89-14c-1.91-2.32-3.66-4.77-5.57-7.09-2.23-2.69-4.52-5.33-6.84-7.94-2.71-3-5.43-6.08-8.26-9-2.56-2.64-5.27-5.14-7.93-7.69q-1.44-1.38-3-2.68-3.37-2.89-6.78-5.75c-2.14-1.79-4.27-3.58-6.45-5.31s-4.15-3.16-6.26-4.7C344.74,115.2,343.36,114.27,341.81,113.18ZM253.49,68.25l-.22.26c.3.53.62,1.05.9,1.59A77.1,77.1,0,0,1,261.4,89,65.18,65.18,0,0,1,263,100.82a75.74,75.74,0,0,1-.17,12.1c-.28,2.41-.37,4.84-.56,7.26q-.26,3.3-.55,6.6c-.09,1-.22,1.93-.33,2.89-.15,1.36-.33,2.71-.44,4.08-.13,1.54-.19,3.09-.29,4.63-.17,2.56-.48,5.11-.48,7.67a98.8,98.8,0,0,0,.21,11.83c.21,1.8.13,3.63.33,5.43.29,2.63.66,5.25,1.12,7.86a4.47,4.47,0,0,0,.89,2.71c2.31,2.38,4.54,4.85,6.8,7.29q3.11,3.37,6.21,6.75,4,4.37,7.94,8.76,1.11,1.23,2.19,2.49c1.44,1.68,2.86,3.37,4.3,5.05,1.24,1.45,2.5,2.87,3.72,4.33,1.56,1.86,3.09,3.76,4.64,5.63s3,3.51,4.42,5.3c1.62,2,3.18,4,4.78,6l6.92,8.73c.72.91,1.46,1.81,2.38,2.95.09-.56.15-.8.17-1,.1-1.32.12-2.65.3-4,.4-2.84.8-5.68,1.37-8.49a150.1,150.1,0,0,1,4.6-17.56c2.63-7.9,5.43-15.75,8.11-23.63,2.3-6.75,4.57-13.5,6.27-20.43.81-3.3,1.6-6.61,2.21-10,.52-2.86.82-5.76,1.13-8.66.25-2.37.49-4.75.51-7.13a69.66,69.66,0,0,0-.21-9.83c-.29-2.14-.32-4.32-.62-6.46-.34-2.4-.86-4.77-1.29-7.16a3.1,3.1,0,0,0-1.46-2.2c-6.85-4.5-13.79-8.87-21-12.84-5.12-2.84-10.22-5.7-15.44-8.35-5.77-2.93-11.65-5.66-17.52-8.39q-6.08-2.84-12.27-5.45c-4.69-2-9.43-3.84-14.16-5.74C256.37,69.31,254.93,68.79,253.49,68.25ZM204.32,359.9a7.66,7.66,0,0,0,.72.94c2.06,1.81,4.09,3.66,6.21,5.4,3.14,2.59,6.29,5.17,9.51,7.65A138,138,0,0,0,234.28,383c2.93,1.75,5.9,3.42,8.87,5.11A136.25,136.25,0,0,0,257.26,395a133.87,133.87,0,0,0,16.52,5.85c3.19.88,6.44,1.55,9.69,2.16,2.29.43,4.63.62,7,.86,2.76.29,5.53.68,8.3.74a108,108,0,0,0,15.93-.47c2.45-.31,4.92-.48,7.36-.82a80.65,80.65,0,0,0,12.17-2.56,131.4,131.4,0,0,0,20.42-7.91c4.33-2.13,8.58-4.46,12.74-6.91,3.2-1.88,6.26-4,9.29-6.18,2.26-1.62,4.38-3.44,6.54-5.19q2.32-1.88,4.58-3.83a15.7,15.7,0,0,0,1.23-1.31c-2-3.78-3.84-7.45-5.76-11.1q-1.76-3.36-3.61-6.67c-2.66-4.76-5.41-9.47-8-14.26a4.72,4.72,0,0,0-2.73-2.31L367,334.4a42.55,42.55,0,0,0-12-2.7,27.64,27.64,0,0,0-6.47-.14c-1.78.3-3.62.16-5.42.33-2.24.21-4.48.45-6.69.85a125.09,125.09,0,0,0-18,4.65c-5.33,1.8-10.62,3.72-15.9,5.65-4.62,1.69-9.2,3.47-13.8,5.19-4.77,1.78-9.51,3.66-14.34,5.27q-8.75,2.92-17.63,5.45a82.18,82.18,0,0,1-11.91,2.54c-2.58.34-5.15.78-7.73,1s-5,.47-7.53.51a51.3,51.3,0,0,1-8.23-.21c-2-.3-4.16-.25-6.19-.63-3.25-.61-6.46-1.45-9.69-2.18C205.25,360,204.92,360,204.32,359.9Zm-37.24-318-.16.26c.23.37.44.75.68,1.1a61,61,0,0,1,4.48,7.69,37.07,37.07,0,0,1,3.84,16.39c0,1.28-.15,2.56-.25,3.83-.18,2.29-.38,4.58-.57,6.86-.17,2-.41,4-.47,6.07,0,1.41.17,2.82.22,4.23a29.24,29.24,0,0,0,1.39,7.27,2.45,2.45,0,0,0,.77,1.18c2.36,1.86,4.78,3.65,7.15,5.5s4.64,3.69,6.94,5.55c2.1,1.7,4.18,3.42,6.26,5.13,2.39,2,4.8,3.91,7.16,5.91,2.1,1.77,4.14,3.59,6.22,5.39,2.44,2.11,4.92,4.18,7.34,6.32,2.79,2.46,5.54,5,8.28,7.48,2.55,2.33,5.1,4.67,7.59,7.06q5.62,5.39,11.16,10.87c2.85,2.8,5.66,5.65,8.49,8.47.26.26.55.48,1,.89-.22-1.33-.43-2.36-.57-3.4q-.33-2.43-.58-4.86a46,46,0,0,1-.46-5.14c0-4.65-.3-9.31.22-14,.17-1.49.18-3,.3-4.5.09-1.1.23-2.19.37-3.29.22-1.79.46-3.59.68-5.38s.39-3.42.59-5.13c.24-2.06.51-4.11.74-6.17.13-1.18.2-2.38.31-3.56.16-1.71.45-3.42.47-5.14.06-5.62.22-11.25-.76-16.83-.5-2.86-.91-5.75-1.54-8.59a79.25,79.25,0,0,0-3.46-11.29,1.86,1.86,0,0,0-1.23-1.24c-3.63-1.29-7.22-2.68-10.86-3.94q-6.71-2.33-13.48-4.51c-5.81-1.87-11.64-3.71-17.49-5.48-5.55-1.68-11.1-3.32-16.69-4.85-6.48-1.77-13-3.41-19.5-5.09C170.15,42.56,168.61,42.22,167.08,41.85ZM396.56,362c.31-.29.59-.51.82-.77,2.06-2.31,4.14-4.61,6.16-7,1.56-1.81,3.16-3.6,4.55-5.53,2.2-3.05,4.25-6.21,6.34-9.34a109.59,109.59,0,0,0,7.09-12.47c2-4.05,3.78-8.21,5.55-12.37a104.3,104.3,0,0,0,5.09-15.23c.83-3.29,1.44-6.64,2.07-10,.36-1.95.59-3.92.81-5.9.16-1.45.2-2.91.31-4.36.17-2.33.47-4.67.48-7a93.44,93.44,0,0,0-.2-11.17c-.29-2.45-.31-4.94-.56-7.4-.29-2.81-.67-5.6-1.05-8.4a93.21,93.21,0,0,0-3.69-16c-1.72-5.36-3.58-10.66-5.77-15.86s-4.61-10.28-7.16-15.3a7.25,7.25,0,0,0-.52-.77c0,1.93.29,3.77.29,5.61a64,64,0,0,1-.2,9c-.3,2.09-.32,4.23-.57,6.33-.32,2.67-.64,5.35-1.15,8a137.68,137.68,0,0,1-3.55,14.13,221,221,0,0,1-8.59,23c-2.18,5-4.42,10-6.67,14.93-2.49,5.49-5.06,10.95-7.53,16.45-1.8,4-3.58,8-5.21,12.08a143,143,0,0,0-5.84,17.78,4.51,4.51,0,0,0,.15,3.71q4.65,8,9.11,16.08c2.71,4.94,5.27,10,7.91,14.93C395.5,360.12,396,361,396.56,362ZM46.42,19.43l-.06.18c7.06,3.29,14.15,6.51,21.16,9.9s14,6.86,20.95,10.5,13.65,7.37,20.37,11.25,13.41,8,20,12.11,13.09,8.47,19.55,12.84S161.13,85,167.58,89.53c-.26-1.75-.45-3.36-.75-5a21.68,21.68,0,0,1,.17-7.66c.41-2.43,1.16-4.81,1.65-7.23.54-2.63,1-5.28,1.37-7.95a23.52,23.52,0,0,0-.2-3.83,25.22,25.22,0,0,0-1.22-6.22,59.72,59.72,0,0,0-4.2-9.76,2,2,0,0,0-1.51-1.15c-2.33-.51-4.65-1.08-7-1.59q-6.92-1.51-13.85-3-6.35-1.35-12.7-2.65T116.51,31q-3.57-.71-7.15-1.37-5.07-.93-10.16-1.83-4-.71-8-1.38c-2.91-.49-5.83-.95-8.75-1.43s-6.09-1-9.14-1.51c-2.53-.4-5.06-.75-7.59-1.14s-5.13-.85-7.7-1.25c-2.92-.45-5.84-.88-8.77-1.3C48.35,19.63,47.38,19.54,46.42,19.43Z"/><path class="cls-2" d="M364.22,324.89c-1.39-.31-2.54-.61-3.7-.82-2-.36-3.91-.69-5.87-1a61,61,0,0,0-11.83-.19,70.45,70.45,0,0,0-11.76,1.78,117.94,117.94,0,0,0-13.66,3.85c-5.6,2-11.13,4.11-16.65,6.29-5.27,2.09-10.47,4.34-15.71,6.51-4.66,1.93-9.31,3.91-14,5.77a180.18,180.18,0,0,1-21.24,7.21c-4.32,1.11-8.66,2.15-13,3.08-2.15.46-4.37.59-6.55.9a54.35,54.35,0,0,1-7.93.55c-1.14,0-2.31.31-3.43.21-3.87-.37-7.78-.15-11.61-1-1.72-.38-3.48-.57-5.22-.85a3.44,3.44,0,0,1-2-1c-3.5-3.54-7.09-7-10.52-10.59-2.13-2.24-4.09-4.65-6-7s-3.84-4.75-5.61-7.23c-1.92-2.71-3.71-5.51-5.46-8.33a126.49,126.49,0,0,1-7.78-14.54c-2-4.47-3.91-9-5.71-13.59-1.24-3.13-2.29-6.33-3.34-9.53-1-2.94-1.81-5.92-2.7-8.89a2.73,2.73,0,0,1,0-.56c.71.25,1.36.45,2,.71a59.81,59.81,0,0,0,12.56,3.77,83.46,83.46,0,0,0,9.58,1.22c2.8.2,5.58.17,8.37.16,1.85,0,3.69-.28,5.54-.46,1.62-.16,3.25-.32,4.86-.57,2.66-.42,5.32-.85,7.95-1.4a195.11,195.11,0,0,0,24.93-7.36c4.93-1.74,9.79-3.64,14.69-5.47,3.69-1.38,7.37-2.8,11.08-4.14,3.88-1.4,7.76-2.76,11.68-4.05a145,145,0,0,1,18.08-4.7c2.16-.42,4.37-.59,6.56-.87a48.52,48.52,0,0,1,8.73-.49c2.68.14,5.36.5,8,.74a43.49,43.49,0,0,1,8.39,1.87c.64.19,1.23.5,1.87.67a2.28,2.28,0,0,1,1.29,1c3.22,4.5,6.48,9,9.68,13.48,2.15,3,4.23,6.12,6.31,9.2,3.27,4.85,6.59,9.67,9.77,14.57,4,6.21,8,12.47,11.89,18.74,2.38,3.79,4.69,7.62,7,11.43C363.9,324.19,364,324.43,364.22,324.89Z"/><path class="cls-2" d="M131.21,174.6c1.48.61,2.82,1.18,4.16,1.72a93.28,93.28,0,0,0,18.16,5.4c3.07.57,6.19.94,9.32,1.21,3.86.33,7.72.21,11.57.16,2.55,0,5.1-.43,7.64-.71,2.19-.25,4.38-.52,6.56-.86s4.08-.74,6.12-1.13c4-.77,8-1.56,12-2.31,3-.56,6.07-1.11,9.13-1.57,2-.29,4-.32,5.93-.6,3.27-.46,6.56-.16,9.83-.24a53.09,53.09,0,0,1,10.79,1.14,66,66,0,0,1,10.48,2.87c1.33.48,2.67,1,4,1.54a6,6,0,0,1,1.79,1.32c1.4,1.48,2.72,3,4.07,4.55l6,6.76c1.53,1.72,3.08,3.42,4.59,5.16s2.74,3.24,4.12,4.85c1.21,1.41,2.43,2.81,3.64,4.23,1.55,1.82,3.1,3.64,4.63,5.47s3.16,3.81,4.71,5.74c2.33,2.89,4.63,5.81,6.95,8.71,1.9,2.39,3.83,4.75,5.71,7.16,1.56,2,3.07,4,4.6,6l3.58,4.69a3.63,3.63,0,0,1-.95.11c-2.38-.48-4.74-1-7.13-1.46a22.8,22.8,0,0,0-3.69-.32c-3.06,0-6.14-.12-9.19,0a52.27,52.27,0,0,0-7.09.84c-3.64.67-7.3,1.37-10.86,2.36-4.35,1.2-8.64,2.62-12.9,4.13-4.75,1.69-9.45,3.55-14.14,5.42-4.11,1.64-8.17,3.42-12.27,5.08-4.43,1.8-8.87,3.59-13.34,5.29-3.73,1.42-7.48,2.77-11.26,4a131.63,131.63,0,0,1-16.14,4.28c-2.16.42-4.35.71-6.52,1.08a84.34,84.34,0,0,1-16.43.76,52.24,52.24,0,0,1-7-.75c-2.83-.45-5.63-1.1-8.45-1.6A2,2,0,0,1,152,273.4q-2.76-10.85-4.89-21.84c-.74-3.86-1.57-7.7-2.3-11.55-.87-4.59-1.64-9.21-2.51-13.8-1-5.12-2-10.22-3-15.32-1-4.93-2-9.86-3.1-14.77-.84-3.84-1.79-7.66-2.71-11.48-.72-3-1.48-6-2.21-9A6.14,6.14,0,0,1,131.21,174.6Z"/><path class="cls-2" d="M341.81,113.18c1.55,1.09,2.93,2,4.27,3,2.1,1.54,4.21,3.09,6.26,4.7s4.32,3.52,6.45,5.31,4.53,3.82,6.78,5.75q1.51,1.3,3,2.68c2.66,2.55,5.37,5,7.93,7.69,2.83,2.93,5.55,6,8.26,9,2.33,2.61,4.62,5.25,6.84,7.94,1.91,2.32,3.67,4.76,5.57,7.09a148.52,148.52,0,0,1,9.89,14c2.42,3.76,4.66,7.64,7,11.48a2.32,2.32,0,0,1,.28,1.12c0,2.89.11,5.78,0,8.66-.11,2.51-.49,5-.73,7.5a90.78,90.78,0,0,1-3.26,16.61c-1.28,4.46-2.73,8.89-4.32,13.25-1.45,4-3.19,7.88-4.82,11.8-.48,1.15-1,2.27-1.54,3.39-3,6.17-6.06,12.35-9.13,18.51-2.26,4.53-4.65,9-6.86,13.54a159.68,159.68,0,0,0-9.18,22.35c-.91,3-1.63,6-2.48,9.09-.53-.82-1.08-1.64-1.59-2.47-2.54-4.11-5-8.26-7.62-12.32-5.65-8.75-11.28-17.5-17.1-26.13-4.55-6.75-9.35-13.34-14.07-20-2.21-3.1-4.5-6.14-6.75-9.2a2.83,2.83,0,0,1-.64-2c.2-2.69.35-5.38.53-8.07a108.41,108.41,0,0,1,2.85-17c1.25-5.44,2.77-10.79,4.41-16.12,1.85-6,3.84-12,5.61-18s3.54-12.32,5.11-18.54c.88-3.5,1.42-7.09,2-10.65.42-2.48.78-5,1-7.47.2-2,.24-4.06.3-6.1,0-1.64.07-3.29,0-4.93-.11-2.43-.34-4.84-.5-7.27a71.13,71.13,0,0,0-2.17-12.37c-.41-1.67-1-3.31-1.42-5A7.12,7.12,0,0,1,341.81,113.18Z"/><path class="cls-2" d="M253.49,68.25c1.44.54,2.88,1.06,4.31,1.64,4.73,1.9,9.47,3.76,14.16,5.74q6.18,2.61,12.27,5.45c5.87,2.74,11.74,5.47,17.52,8.39,5.22,2.64,10.32,5.51,15.44,8.35,7.17,4,14.11,8.34,21,12.84a3.1,3.1,0,0,1,1.46,2.2c.43,2.39,1,4.76,1.29,7.16.3,2.14.33,4.32.62,6.46a69.66,69.66,0,0,1,.21,9.83c0,2.38-.26,4.76-.51,7.13-.3,2.89-.6,5.8-1.13,8.66-.61,3.34-1.4,6.65-2.21,10-1.7,6.93-4,13.69-6.27,20.43-2.69,7.88-5.48,15.73-8.11,23.63a150.1,150.1,0,0,0-4.6,17.56c-.57,2.81-1,5.65-1.37,8.49-.19,1.31-.2,2.64-.3,4,0,.24-.08.48-.17,1-.92-1.14-1.66-2-2.38-2.95l-6.92-8.73c-1.59-2-3.16-4-4.78-6-1.45-1.79-3-3.53-4.42-5.3s-3.08-3.77-4.64-5.63c-1.22-1.46-2.49-2.88-3.72-4.33-1.44-1.68-2.86-3.37-4.3-5.05q-1.08-1.26-2.19-2.49-4-4.39-7.94-8.76-3.09-3.39-6.21-6.75c-2.26-2.44-4.49-4.9-6.8-7.29a4.47,4.47,0,0,1-.89-2.71c-.46-2.6-.83-5.23-1.12-7.86-.2-1.8-.11-3.63-.33-5.43a98.8,98.8,0,0,1-.21-11.83c0-2.56.31-5.11.48-7.67.1-1.54.17-3.09.29-4.63.11-1.36.29-2.72.44-4.08.11-1,.25-1.93.33-2.89q.3-3.3.55-6.6c.19-2.42.28-4.85.56-7.26a75.74,75.74,0,0,0,.17-12.1A65.18,65.18,0,0,0,261.4,89a77.1,77.1,0,0,0-7.23-18.94c-.29-.54-.6-1.06-.9-1.59Z"/><path class="cls-2" d="M204.32,359.9c.61.06.93.07,1.24.14,3.23.73,6.44,1.57,9.69,2.18,2,.38,4.14.33,6.19.63a51.3,51.3,0,0,0,8.23.21c2.51,0,5-.25,7.53-.51s5.15-.71,7.73-1A82.18,82.18,0,0,0,256.84,359q8.87-2.54,17.63-5.45c4.83-1.61,9.57-3.49,14.34-5.27,4.6-1.72,9.18-3.5,13.8-5.19,5.28-1.93,10.57-3.85,15.9-5.65a125.09,125.09,0,0,1,18-4.65c2.21-.4,4.45-.63,6.69-.85,1.8-.17,3.65,0,5.42-.33a27.64,27.64,0,0,1,6.47.14,42.55,42.55,0,0,1,12,2.7l1.86.71a4.72,4.72,0,0,1,2.73,2.31c2.59,4.8,5.33,9.51,8,14.26q1.85,3.31,3.61,6.67c1.92,3.65,3.8,7.32,5.76,11.1a15.7,15.7,0,0,1-1.23,1.31q-2.27,1.94-4.58,3.83c-2.16,1.75-4.28,3.57-6.54,5.19-3,2.16-6.09,4.3-9.29,6.18-4.16,2.45-8.4,4.78-12.74,6.91a131.4,131.4,0,0,1-20.42,7.91A80.65,80.65,0,0,1,322,403.33c-2.45.34-4.91.51-7.36.82a108,108,0,0,1-15.93.47c-2.77-.06-5.54-.45-8.3-.74-2.32-.24-4.67-.43-7-.86-3.25-.61-6.51-1.28-9.69-2.16A133.87,133.87,0,0,1,257.26,395a136.25,136.25,0,0,1-14.11-6.87c-3-1.68-5.94-3.36-8.87-5.11a138,138,0,0,1-13.52-9.17c-3.22-2.48-6.37-5.06-9.51-7.65-2.11-1.75-4.15-3.59-6.21-5.4A7.66,7.66,0,0,1,204.32,359.9Z"/><path class="cls-2" d="M247.65,171.14c-1.34-.28-2.67-.6-4-.84q-4.49-.81-9-1.57a69.7,69.7,0,0,0-14.33-.46,78.15,78.15,0,0,0-10.1,1.27c-4.09.7-8.15,1.55-12.2,2.42-5.91,1.26-11.8,2.66-17.72,3.88-2.67.55-5.41.78-8.11,1.18a51.79,51.79,0,0,1-7.67.56c-1.28,0-2.56.25-3.83.21-2.74-.1-5.47-.36-8.2-.48a73.58,73.58,0,0,1-11.65-1.66c-3.11-.64-6.17-1.52-9.26-2.28A1.59,1.59,0,0,1,130.3,172c-2.26-8.33-4.7-16.61-7.62-24.74q-3.06-8.5-6.46-16.87c-1.72-4.23-3.64-8.37-5.57-12.51-1.78-3.82-3.66-7.59-5.55-11.36-.83-1.66-1.79-3.26-2.68-4.9-.21-.38-.37-.79-.55-1.18.47-.45.87-.14,1.27,0,3,.84,5.93,1.81,8.95,2.47,2.75.61,5.57.84,8.36,1.31a38.21,38.21,0,0,0,8,.21,59,59,0,0,0,8.28-.91c4.73-.88,9.4-2,14.12-3,2-.38,4-.43,6.05-.63.53-.05,1.05-.12,1.58-.16a7.12,7.12,0,0,1,1.05,0c.57,0,1.14.17,1.71.17a33,33,0,0,1,8.22,1.28c.47.12.94.26,1.41.37a10.74,10.74,0,0,1,4.5,2.44c2.31,1.93,4.67,3.78,7,5.7,2,1.67,4,3.4,5.95,5.09,2.19,1.86,4.4,3.69,6.58,5.57,1.65,1.41,3.26,2.87,4.88,4.3l6.95,6.17c1,.88,2,1.77,3,2.68q2.86,2.69,5.69,5.4,6.77,6.49,13.53,13c3.07,3,6.14,5.91,9.15,8.92s5.7,5.84,8.53,8.79a14.69,14.69,0,0,1,1.11,1.48Z"/><path class="cls-2" d="M167.08,41.85c1.53.37,3.07.71,4.6,1.1,6.5,1.68,13,3.32,19.5,5.09,5.59,1.53,11.15,3.17,16.69,4.85,5.85,1.77,11.67,3.61,17.49,5.48q6.77,2.18,13.48,4.51c3.64,1.26,7.23,2.65,10.86,3.94a1.86,1.86,0,0,1,1.23,1.24,79.25,79.25,0,0,1,3.46,11.29c.63,2.84,1,5.72,1.54,8.59,1,5.58.82,11.21.76,16.83,0,1.71-.31,3.42-.47,5.14-.11,1.19-.18,2.38-.31,3.56-.23,2.06-.49,4.11-.74,6.17-.2,1.71-.39,3.42-.59,5.13s-.46,3.59-.68,5.38c-.14,1.09-.28,2.19-.37,3.29-.12,1.5-.13,3-.3,4.5-.52,4.65-.19,9.31-.22,14a46,46,0,0,0,.46,5.14q.26,2.43.58,4.86c.14,1,.34,2.07.57,3.4-.48-.41-.77-.64-1-.89-2.83-2.82-5.64-5.67-8.49-8.47q-5.55-5.46-11.16-10.87c-2.49-2.39-5-4.73-7.59-7.06-2.74-2.51-5.49-5-8.28-7.48-2.42-2.14-4.9-4.21-7.34-6.32-2.08-1.79-4.12-3.62-6.22-5.39-2.37-2-4.77-3.94-7.16-5.91-2.08-1.71-4.16-3.43-6.26-5.13-2.3-1.86-4.61-3.73-6.94-5.55s-4.79-3.64-7.15-5.5a2.45,2.45,0,0,1-.77-1.18,29.24,29.24,0,0,1-1.39-7.27c0-1.41-.27-2.83-.22-4.23.07-2,.31-4,.47-6.07.19-2.29.39-4.58.57-6.86.1-1.28.25-2.56.25-3.83a37.07,37.07,0,0,0-3.84-16.39,61,61,0,0,0-4.48-7.69c-.24-.36-.45-.73-.68-1.1Z"/><path class="cls-2" d="M396.56,362c-.54-1-1.06-1.83-1.53-2.72-2.64-5-5.2-10-7.91-14.93q-4.44-8.1-9.11-16.08a4.51,4.51,0,0,1-.15-3.71,143,143,0,0,1,5.84-17.78c1.63-4.07,3.41-8.08,5.21-12.08,2.47-5.5,5-11,7.53-16.45,2.25-5,4.49-9.93,6.67-14.93a221,221,0,0,0,8.59-23,137.68,137.68,0,0,0,3.55-14.13c.52-2.64.83-5.32,1.15-8,.25-2.1.27-4.23.57-6.33a64,64,0,0,0,.2-9c0-1.84-.29-3.68-.29-5.61a7.25,7.25,0,0,1,.52.77c2.55,5,5,10.1,7.16,15.3s4,10.5,5.77,15.86a93.21,93.21,0,0,1,3.69,16c.38,2.8.76,5.59,1.05,8.4.25,2.46.28,4.94.56,7.4a93.44,93.44,0,0,1,.2,11.17c0,2.33-.31,4.67-.48,7-.1,1.45-.14,2.92-.31,4.36-.22,2-.45,3.95-.81,5.9-.62,3.34-1.24,6.69-2.07,10a104.3,104.3,0,0,1-5.09,15.23c-1.77,4.16-3.55,8.32-5.55,12.37a109.59,109.59,0,0,1-7.09,12.47c-2.09,3.13-4.14,6.29-6.34,9.34-1.39,1.93-3,3.72-4.55,5.53-2,2.34-4.1,4.64-6.16,7C397.15,361.44,396.87,361.66,396.56,362Z"/><path class="cls-2" d="M40.25,19.18c.74.28,1.51.51,2.22.86,6.3,3.09,12.61,6.15,18.87,9.31q6.77,3.43,13.4,7.11C80.39,39.6,86,42.77,91.59,46.08c6.85,4.07,13.67,8.2,20.41,12.46,6.33,4,12.61,8.09,18.77,12.34,7.21,5,14.28,10.16,21.39,15.28,3,2.2,6,4.48,9.06,6.72a2.94,2.94,0,0,0,.62.27l-.26.41c-1-.13-1.94-.31-2.91-.37a36.54,36.54,0,0,0-6.59-.26,48.89,48.89,0,0,0-7,1.17c-1.54.41-3.07.87-4.58,1.38a80.57,80.57,0,0,1-11,3,52.77,52.77,0,0,1-5.52.65,54.94,54.94,0,0,1-5.7.25c-2.34-.06-4.68-.23-7-.5-3.2-.37-6.37-.91-9.56-1.32a3.12,3.12,0,0,1-2.52-1.76c-2.58-4.44-5.24-8.84-8-13.16s-5.8-8.8-8.82-13.12Q78,63.34,73.38,57.32c-2.87-3.76-5.88-7.41-8.88-11.07-2-2.46-4.1-4.87-6.2-7.27-2.31-2.63-4.63-5.25-7-7.81-3.35-3.6-6.78-7.14-10.15-10.72a10.51,10.51,0,0,1-.89-1.27Z"/><path class="cls-2" d="M46.42,19.43c1,.11,1.92.2,2.88.34,2.92.42,5.85.85,8.77,1.3,2.57.4,5.13.85,7.7,1.25s5.06.74,7.59,1.14c3,.48,6.09,1,9.14,1.51s5.84.94,8.75,1.43q4,.67,8,1.38,5.08.9,10.16,1.83,3.58.66,7.15,1.37,6.43,1.28,12.85,2.58t12.7,2.65q6.93,1.47,13.85,3c2.33.51,4.65,1.08,7,1.59a2,2,0,0,1,1.51,1.15,59.72,59.72,0,0,1,4.2,9.76,25.22,25.22,0,0,1,1.22,6.22,23.52,23.52,0,0,1,.2,3.83c-.33,2.67-.84,5.31-1.37,7.95-.49,2.42-1.24,4.8-1.65,7.23a21.68,21.68,0,0,0-.17,7.66c.3,1.59.49,3.2.75,5-6.45-4.48-12.76-9-19.18-13.32s-13-8.68-19.55-12.84-13.26-8.21-20-12.11S95.34,43.62,88.47,40s-13.92-7.1-20.95-10.5-14.1-6.61-21.16-9.9Z"/><path class="cls-2" d="M40.25,19.18l-.12-.06.11.06Z"/><path class="cls-2" d="M247.65,171.14l.11.11s-.06,0-.07,0a.35.35,0,0,1,0-.09Z"/></g></g></svg>